<?xml version="1.0" encoding="UTF-8" standalone="no"?>
<svg
   height="128px"
   viewBox="0 0 128 128"
   width="128px"
   version="1.1"
   id="svg66"
   sodipodi:docname="org.cvfosammmm.Setzer.Devel.svg"
   inkscape:version="1.3.2 (091e20ef0f, 2023-11-25, custom)"
   xmlns:inkscape="http://www.inkscape.org/namespaces/inkscape"
   xmlns:sodipodi="http://sodipodi.sourceforge.net/DTD/sodipodi-0.dtd"
   xmlns="http://www.w3.org/2000/svg"
   xmlns:svg="http://www.w3.org/2000/svg">
  <defs
     id="defs66" />
  <sodipodi:namedview
     id="namedview66"
     pagecolor="#ffffff"
     bordercolor="#000000"
     borderopacity="0.25"
     inkscape:showpageshadow="2"
     inkscape:pageopacity="0.0"
     inkscape:pagecheckerboard="0"
     inkscape:deskcolor="#d1d1d1"
     inkscape:zoom="0.86816406"
     inkscape:cx="401.42182"
     inkscape:cy="6.3352081"
     inkscape:window-width="1920"
     inkscape:window-height="998"
     inkscape:window-x="0"
     inkscape:window-y="0"
     inkscape:window-maximized="1"
     inkscape:current-layer="svg66" />
  <filter
     id="a"
     height="1"
     width="1"
     x="0"
     y="0">
    <feColorMatrix
       color-interpolation-filters="sRGB"
       values="0 0 0 0 1 0 0 0 0 1 0 0 0 0 1 0 0 0 1 0"
       id="feColorMatrix1" />
  </filter>
  <clipPath
     id="b">
    <path
       d="m 16 67 h 33 v 25 h -33 z m 0 0"
       id="path1" />
  </clipPath>
  <clipPath
     id="c">
    <path
       d="m 12.625 75.5625 c 0.0625 -0.003906 0.726562 -0.191406 1.480469 -0.414062 c 1.34375 -0.402344 4.328125 -1.042969 4.332031 -0.929688 c 0 0.0625 -1.402344 0.625 -2.945312 1.183594 c -0.652344 0.238281 -0.941407 0.382812 -1.011719 0.503906 c -0.09375 0.164062 -0.085938 0.171875 0.132812 0.210938 c 0.414063 0.078124 0.324219 0.195312 -0.277343 0.355468 c -0.660157 0.179688 -1.003907 0.433594 -0.761719 0.566406 c 0.167969 0.09375 0.136719 0.140626 -0.125 0.183594 c -0.105469 0.019532 -0.261719 0.105469 -0.347657 0.195313 c -0.148437 0.15625 -0.140624 0.179687 0.109376 0.414062 l 0.261718 0.253907 l -0.417968 0.089843 c -0.429688 0.085938 -0.550782 0.167969 -0.710938 0.464844 c -0.066406 0.121094 -0.046875 0.203125 0.074219 0.320313 c 0.144531 0.136718 0.144531 0.183593 -0.007813 0.40625 c -0.390625 0.566406 -0.425781 0.671874 -0.277344 0.851562 c 0.203126 0.242188 0.644532 0.308594 1.578126 0.234375 c 0.449218 -0.039063 0.800781 -0.035156 0.78125 0.007813 c -0.015626 0.039062 -0.21875 0.191406 -0.445313 0.34375 c -0.378906 0.246093 -0.417969 0.292968 -0.503906 0.585937 c -0.050781 0.175781 -0.0625 0.351563 -0.023438 0.386719 c 0.042969 0.039062 0.359375 -0.003906 0.710938 -0.097656 c 0.351562 -0.089844 0.660156 -0.148438 0.683593 -0.125 c 0.027344 0.027343 0.011719 0.109374 -0.035156 0.191406 c -0.25 0.453125 0.730469 0.335937 2.207032 -0.257813 c 0.617187 -0.25 1.160156 -0.445312 1.203124 -0.4375 c 0.042969 0.007813 -0.082031 0.1875 -0.28125 0.394531 c -0.195312 0.207032 -0.347656 0.417969 -0.335937 0.464844 s -0.074219 0.21875 -0.1875 0.386719 c -0.121094 0.167969 -0.222656 0.433594 -0.230469 0.605469 c -0.015625 0.238281 -0.066406 0.335937 -0.222656 0.441406 c -0.109375 0.074219 -0.292969 0.269531 -0.410156 0.433594 c -0.183594 0.265625 -0.195313 0.328125 -0.078125 0.546875 c 0.113281 0.210937 0.105469 0.289062 -0.046875 0.515625 c -0.269532 0.398437 -1.949219 2.011718 -1.347656 2.242187 c 2.507812 -0.023437 2 -1 3 0 c -0.859376 3.496094 4.972656 3.390625 7.15625 2.347657 c 1.988281 -0.855469 -0.742188 -1.6875 -1.15625 -0.347657 c 1.023437 0.78125 0 1 4 2 l 4.53125 -3 c 1.980468 -2.03125 2.496093 -2.496093 4.453124 -4.351562 c 2.878907 -2.738281 3.015626 -3.648438 6.429688 -5.648438 c 1.042969 -0.410156 4.574219 -0.601562 4.585938 -0.632812 c 0.011718 -0.035157 -6.578126 -4.089844 -13.304688 -6.265625 l -12.226562 -3.957032 l -4.824219 4 c -2.65625 2.195313 -4.929688 4.074219 -5.054688 4.167969 c -0.144531 0.109375 -0.183593 0.171875 -0.113281 0.167969 z m 0 0"
       id="path2" />
  </clipPath>
  <clipPath
     id="d">
    <path
       d="m 16 12 h 50 v 51 h -50 z m 0 0"
       id="path3" />
  </clipPath>
  <clipPath
     id="e">
    <path
       d="m 21.144531 12.082031 h 86.011719 c 2.757812 0 4.992188 2.234375 4.992188 4.992188 v 94.015625 c 0 2.757812 -2.234376 4.992187 -4.992188 4.992187 h -86.011719 c -2.757812 0 -4.996093 -2.234375 -4.996093 -4.992187 v -94.015625 c 0 -2.757813 2.238281 -4.992188 4.996093 -4.992188 z m 0 0"
       id="path4" />
  </clipPath>
  <clipPath
     id="f">
    <path
       d="m 16.148438 48 h 49.851562 v 40 h -49.851562 z m 0 0"
       id="path5" />
  </clipPath>
  <clipPath
     id="g">
    <path
       d="m 16.148438 47 h 50.851562 v 41 h -50.851562 z m 0 0"
       id="path6" />
  </clipPath>
  <clipPath
     id="h">
    <path
       d="m 16 67 h 33 v 25 h -33 z m 0 0"
       id="path7" />
  </clipPath>
  <clipPath
     id="i">
    <path
       d="m 12.625 75.5625 c 0.0625 -0.003906 0.726562 -0.191406 1.480469 -0.414062 c 1.34375 -0.402344 4.328125 -1.042969 4.332031 -0.929688 c 0 0.0625 -1.402344 0.625 -2.945312 1.183594 c -0.652344 0.238281 -0.941407 0.382812 -1.011719 0.503906 c -0.09375 0.164062 -0.085938 0.171875 0.132812 0.210938 c 0.414063 0.078124 0.324219 0.195312 -0.277343 0.355468 c -0.660157 0.179688 -1.003907 0.433594 -0.761719 0.566406 c 0.167969 0.09375 0.136719 0.140626 -0.125 0.183594 c -0.105469 0.019532 -0.261719 0.105469 -0.347657 0.195313 c -0.148437 0.15625 -0.140624 0.179687 0.109376 0.414062 l 0.261718 0.253907 l -0.417968 0.089843 c -0.429688 0.085938 -0.550782 0.167969 -0.710938 0.464844 c -0.066406 0.121094 -0.046875 0.203125 0.074219 0.320313 c 0.144531 0.136718 0.144531 0.183593 -0.007813 0.40625 c -0.390625 0.566406 -0.425781 0.671874 -0.277344 0.851562 c 0.203126 0.242188 0.644532 0.308594 1.578126 0.234375 c 0.449218 -0.039063 0.800781 -0.035156 0.78125 0.007813 c -0.015626 0.039062 -0.21875 0.191406 -0.445313 0.34375 c -0.378906 0.246093 -0.417969 0.292968 -0.503906 0.585937 c -0.050781 0.175781 -0.0625 0.351563 -0.023438 0.386719 c 0.042969 0.039062 0.359375 -0.003906 0.710938 -0.097656 c 0.351562 -0.089844 0.660156 -0.148438 0.683593 -0.125 c 0.027344 0.027343 0.011719 0.109374 -0.035156 0.191406 c -0.25 0.453125 0.730469 0.335937 2.207032 -0.257813 c 0.617187 -0.25 1.160156 -0.445312 1.203124 -0.4375 c 0.042969 0.007813 -0.082031 0.1875 -0.28125 0.394531 c -0.195312 0.207032 -0.347656 0.417969 -0.335937 0.464844 s -0.074219 0.21875 -0.1875 0.386719 c -0.121094 0.167969 -0.222656 0.433594 -0.230469 0.605469 c -0.015625 0.238281 -0.066406 0.335937 -0.222656 0.441406 c -0.109375 0.074219 -0.292969 0.269531 -0.410156 0.433594 c -0.183594 0.265625 -0.195313 0.328125 -0.078125 0.546875 c 0.113281 0.210937 0.105469 0.289062 -0.046875 0.515625 c -0.269532 0.398437 -1.949219 2.011718 -1.347656 2.242187 c 2.507812 -0.023437 2 -1 3 0 c -0.859376 3.496094 4.972656 3.390625 7.15625 2.347657 c 1.988281 -0.855469 -0.742188 -1.6875 -1.15625 -0.347657 c 1.023437 0.78125 0 1 4 2 l 4.53125 -3 c 1.980468 -2.03125 2.496093 -2.496093 4.453124 -4.351562 c 2.878907 -2.738281 3.015626 -3.648438 6.429688 -5.648438 c 1.042969 -0.410156 4.574219 -0.601562 4.585938 -0.632812 c 0.011718 -0.035157 -6.578126 -4.089844 -13.304688 -6.265625 l -12.226562 -3.957032 l -4.824219 4 c -2.65625 2.195313 -4.929688 4.074219 -5.054688 4.167969 c -0.144531 0.109375 -0.183593 0.171875 -0.113281 0.167969 z m 0 0"
       id="path8" />
  </clipPath>
  <clipPath
     id="j">
    <path
       d="m 16 12 h 50 v 51 h -50 z m 0 0"
       id="path9" />
  </clipPath>
  <clipPath
     id="k">
    <path
       d="m 21.144531 12.082031 h 86.011719 c 2.757812 0 4.992188 2.234375 4.992188 4.992188 v 94.015625 c 0 2.757812 -2.234376 4.992187 -4.992188 4.992187 h -86.011719 c -2.757812 0 -4.996093 -2.234375 -4.996093 -4.992187 v -94.015625 c 0 -2.757813 2.238281 -4.992188 4.996093 -4.992188 z m 0 0"
       id="path10" />
  </clipPath>
  <clipPath
     id="l">
    <path
       d="m 16.148438 48 h 49.851562 v 40 h -49.851562 z m 0 0"
       id="path11" />
  </clipPath>
  <clipPath
     id="m">
    <path
       d="m 16.148438 47 h 50.851562 v 41 h -50.851562 z m 0 0"
       id="path12" />
  </clipPath>
  <clipPath
     id="n">
    <path
       d="m 62 64 h 66 v 35 h -66 z m 0 0"
       id="path13" />
  </clipPath>
  <clipPath
     id="o">
    <rect
       height="128"
       width="128"
       id="rect13" />
  </clipPath>
  <clipPath
     id="p">
    <rect
       height="128"
       width="128"
       id="rect14" />
  </clipPath>
  <mask
     id="q">
    <g
       filter="url(#a)"
       id="g37">
      <g
         clip-path="url(#p)"
         filter="url(#a)"
         id="g36">
        <g
           clip-path="url(#o)"
           id="g35">
          <path
             d="m 20.648438 8.082031 h 87 c 4.695312 0 8.5 3.804688 8.5 8.5 v 95 c 0 4.695313 -3.804688 8.5 -8.5 8.5 h -87 c -4.691407 0 -8.5 -3.804687 -8.5 -8.5 v -95 c 0 -4.695312 3.808593 -8.5 8.5 -8.5 z m 0 0"
             id="path14" />
          <path
             d="m 21.144531 12.082031 h 86.011719 c 2.757812 0 4.992188 2.234375 4.992188 4.992188 v 94.015625 c 0 2.757812 -2.234376 4.992187 -4.992188 4.992187 h -86.011719 c -2.757812 0 -4.996093 -2.234375 -4.996093 -4.992187 v -94.015625 c 0 -2.757813 2.238281 -4.992188 4.996093 -4.992188 z m 0 0"
             fill="#f6f5f4"
             id="path15" />
          <path
             d="m 24.148438 96.082031 h 80 v 8 h -80 z m 0 0"
             fill="#deddda"
             id="path16" />
          <path
             d="m 24.148438 102.082031 h 68 v 6 h -68 z m 0 0"
             fill="#deddda"
             id="path17" />
          <path
             d="m 24.148438 86.082031 h 20 v 6 h -20 z m 0 0"
             fill="#deddda"
             id="path18" />
          <path
             d="m 24.148438 76.082031 h 80 v 12 h -80 z m 0 0"
             fill="#deddda"
             id="path19" />
          <path
             d="m 60.148438 68.082031 h 30 v 4 h -30 z m 0 0"
             fill="#deddda"
             id="path20" />
          <path
             d="m 60.148438 48.082031 h 44 v 20 h -44 z m 0 0"
             fill="#deddda"
             id="path21" />
          <path
             d="m 60.148438 28.082031 h 44 v 16 h -44 z m 0 0"
             fill="#deddda"
             id="path22" />
          <g
             clip-path="url(#h)"
             id="g24">
            <g
               clip-path="url(#i)"
               id="g23">
              <path
                 d="m 16.148438 64.082031 h 36 v 40 h -36 z m 0 0"
                 id="path23" />
            </g>
          </g>
          <g
             clip-path="url(#j)"
             id="g26">
            <g
               clip-path="url(#k)"
               id="g25">
              <path
                 d="m 31.453125 62.199219 c -0.179687 -0.097657 -0.566406 -0.394531 -0.859375 -0.664063 c -0.605469 -0.558594 -0.710938 -1.246094 -0.289062 -1.867187 c 0.242187 -0.351563 0.226562 -0.417969 -0.257813 -1.175781 c -0.28125 -0.441407 -0.515625 -0.945313 -0.515625 -1.117188 c -0.003906 -0.183594 -0.117188 -0.3125 -0.269531 -0.3125 c -0.21875 0.003906 -0.246094 -0.101562 -0.15625 -0.605469 c 0.207031 -1.140625 0.1875 -1.199219 -0.414063 -1.394531 c -0.523437 -0.164062 -0.566406 -0.230469 -0.542968 -0.769531 c 0.023437 -0.539063 -0.015626 -0.59375 -0.496094 -0.679688 c -0.855469 -0.15625 -2.050782 -0.976562 -2.164063 -1.484375 c -0.054687 -0.246094 -0.160156 -0.558594 -0.234375 -0.695312 c -0.074218 -0.136719 -0.191406 -0.5 -0.261718 -0.808594 c -0.070313 -0.308594 -0.261719 -0.703125 -0.425782 -0.878906 c -0.164062 -0.175782 -0.425781 -0.847656 -0.582031 -1.492188 c -0.265625 -1.105468 -0.308594 -1.171875 -0.722656 -1.167968 c -0.304688 0.003906 -0.558594 -0.144532 -0.804688 -0.46875 c -0.199219 -0.261719 -0.363281 -0.542969 -0.363281 -0.625 c 0 -0.078126 -0.253906 -0.183594 -0.5625 -0.230469 c -0.34375 -0.050781 -0.753906 -0.285157 -1.070312 -0.613281 c -0.527344 -0.550782 -1.15625 -1.734376 -1.160157 -2.1875 c 0 -0.140626 -0.101562 -0.371094 -0.222656 -0.511719 c -0.308594 -0.351563 -0.78125 -1.5625 -0.949219 -2.433594 c -0.078125 -0.398437 -0.269531 -1.054687 -0.429687 -1.453125 c -0.15625 -0.398438 -0.277344 -1.039062 -0.269531 -1.417969 c 0.007812 -0.597656 -0.066407 -0.757812 -0.546876 -1.171875 c -0.308593 -0.261718 -0.609374 -0.675781 -0.671874 -0.917968 c -0.066407 -0.246094 -0.292969 -0.625 -0.507813 -0.847657 c -0.824219 -0.84375 -1.203125 -2.96875 -0.679687 -3.792969 c 0.40625 -0.636718 0.234374 -1.121093 -0.433594 -1.226562 c -1.742188 -0.269531 -3.261719 -1.820312 -3.28125 -3.351562 c -0.003906 -0.34375 -0.191406 -0.558594 -0.898438 -1.03125 c -0.488281 -0.328126 -0.976562 -0.703126 -1.085937 -0.828126 c -0.308594 -0.363281 -0.460938 -1.464843 -0.304688 -2.234374 c 0.246094 -1.246094 0.007813 -1.695313 -1.257812 -2.359376 c -1.347657 -0.710937 -2.328125 -1.601562 -2.746094 -2.496093 c -0.3125 -0.667969 -0.3125 -0.679688 0.015625 -1.25 c 0.238281 -0.417969 0.917969 -0.949219 2.488281 -1.945313 c 1.1875 -0.757812 2.160157 -1.417968 2.160157 -1.476562 c 0 -0.054688 -0.457032 -0.210938 -1.019532 -0.34375 c -0.953125 -0.226563 -1.15625 -0.21875 -3.199218 0.113281 l -2.183594 0.355469 l -2.050782 -0.417969 c -1.753906 -0.355469 -2.148437 -0.496094 -2.6875 -0.945313 l -0.632812 -0.527343 l 26.101562 -0.328125 l 26.105469 -0.328125 l 0.449219 1.332031 c 0.480469 1.429688 1.511719 5.085938 1.992188 7.070312 c 0.5625 2.316407 1.789062 6.003907 3.113281 9.363282 c 0.332031 0.84375 1.121093 3.023437 1.75 4.84375 c 2.039062 5.898437 4.175781 10.621094 5.730469 12.679687 c 0.414062 0.542969 1.183593 1.539063 1.75 2 c 0.570312 0.460938 1.050781 0.941407 1.078124 1 c 0.050782 0.121094 -33.648437 14.296875 -33.976562 14.296875 c -0.121094 0 -0.367188 -0.082031 -0.546875 -0.179687 z m 0 0"
                 id="path24" />
            </g>
          </g>
          <g
             clip-path="url(#l)"
             id="g27">
            <path
               d="m 33.148438 61.082031 l -1 1.203125 l 2 -0.203125 l 0.53125 0.328125 l -0.046876 0.484375 l -1.96875 0.6875 l -5.921874 -0.125 l -11.90625 -0.65625 l 0.3125 24.28125 l 50.828124 -39 l -19.828124 4 z m 0 0"
               id="path26" />
          </g>
          <g
             clip-path="url(#m)"
             id="g28">
            <path
               d="m 32.998389 233.000885 l -1 1.203125 l 2 -0.203125 l 0.53125 0.328125 l -0.046875 0.484375 l -1.96875 0.6875 l -5.921875 -0.125 l -11.90625 -0.65625 l 0.3125 24.28125 l 50.828125 -39 l -19.828125 4 z m 0 0"
               fill="none"
               stroke="#000000"
               stroke-width="0.1"
               transform="matrix(1 0 0 1 0.150049 -171.918854)"
               id="path27" />
          </g>
          <path
             d="m 33.148438 66.082031 h 40 v 11 h -40 z m 0 0"
             id="path28" />
          <path
             d="m 37.148438 49.082031 h 27 v 22 h -27 z m 0 0"
             id="path29" />
          <path
             d="m 78.054688 64.066406 c 0 -0.117187 0.042968 -3.015625 0.09375 -6.4375 l 0.09375 -6.226562 l 0.710937 -0.160156 l 0.707031 -0.164063 l 0.914063 -0.496094 l 0.917969 -0.492187 l 1.007812 -0.273438 l 1.265625 0.132813 l 1.269531 0.132812 l 1.058594 0.402344 c 0.886719 0.339844 1.144531 0.449219 1.566406 0.679687 l 0.507813 0.273438 l 0.914062 0.085938 l 0.917969 0.082031 l 0.5625 0.328125 c 0.308594 0.183594 0.644531 0.378906 0.746094 0.4375 c 0.171875 0.097656 0.199218 0.128906 0.667968 0.734375 l 0.488282 0.628906 l 0.261718 0.796875 l 0.261719 0.792969 l 0.097657 0.882812 l 0.101562 0.886719 l -0.113281 0.578125 c -0.101563 0.535156 -0.121094 0.605469 -0.234375 0.847656 l -0.125 0.265625 l -0.128906 -0.273437 c -0.066407 -0.152344 -0.132813 -0.285157 -0.144532 -0.296875 c -0.007812 -0.011719 -0.148437 -0.011719 -0.3125 -0.003906 c -0.453125 0.023437 -1.332031 -0.074219 -2.007812 -0.222657 l -0.589844 -0.128906 l -0.71875 0.160156 c -0.707031 0.160157 -0.75 0.175781 -2.1875 0.6875 l -1.464844 0.519531 l -0.871094 0.507813 c -0.480468 0.28125 -1.261718 0.734375 -1.734374 1.011719 l -0.863282 0.503906 l -1.789062 1.496094 c -0.984375 0.820312 -1.804688 1.5 -1.820313 1.511718 c -0.03125 0.019532 -0.03125 0.003907 -0.027343 -0.191406 z m 0 0"
             id="path30" />
          <path
             d="m 65.826514 220.000885 l 4.171875 3 l 2.28125 1 h 2.71875 l 3.09375 -0.679687 l -0.1875 12.664062 l -5.46875 2.320313 l -9.4375 0.042968 v -19.003906 z m 0 0"
             stroke="#000000"
             stroke-width="0.1"
             transform="matrix(1 0 0 1 0.150049 -171.918854)"
             id="path31" />
          <g
             clip-path="url(#n)"
             id="g32">
            <path
               d="m 77.713232 236.86026 l 1.9375 1.515625 l 5.015625 2.835938 l 7.585938 6.128906 l 2.355469 1.5625 l 1.582031 0.328125 l 3.359375 1.828125 l 5.800781 2.648437 l 5.601563 1.46875 l 4.976562 -0.152343 l 4.410156 -3.070313 l 3.324219 -4.324219 l 0.972656 -0.671875 l -0.222656 1.207032 l 2.628906 -4.730469 l 0.816407 -0.679688 l -0.121094 1.085938 l -0.769531 2.160156 l -2.683594 4.753906 l -3.800781 5.804688 l -7.199219 6.046875 l -1.410156 0.230469 l 2.550781 -0.578125 l 0.863281 0.804687 l -6.78125 2.617188 l 1.195313 1.367187 l -4.582032 1.007813 l -1.167968 -0.433594 l -2.105469 1.410156 l -2 -0.296875 l -0.863281 0.859375 l -1.980469 0.328125 l -0.984375 -0.089844 l -1.269531 0.84375 l -2 0.101563 l -0.917969 -0.933594 l -0.949219 0.421875 l -1.945312 -0.480469 l -1.496094 0.667969 l -1.179688 -0.875 l -1.207031 0.480469 l -1.644531 -0.5 l -0.070313 -0.976563 l -1.164062 0.628907 l -1.710938 -1.3125 l -2.132812 0.5 l -0.257813 -1.058594 l -2.078125 -0.140625 l -0.667968 -1.160156 l -1.40625 0.066406 l -0.859375 -1.351563 l -1.105469 0.15625 l -0.441406 -1.09375 l -1.757813 -0.394531 l 0.046875 -0.859375 l -1.523437 -0.105469 l -0.105469 -1.074218 l -1.710938 -0.1875 l -0.183593 -1.097657 l -1.421875 -0.375 l 0.074218 -1.207031 l -1.871093 -0.566406 l 0.359375 -1.558594 l -1.207032 -0.585937 l -0.128906 -0.667969 z m 0 0"
               stroke="#000000"
               stroke-width="0.015724"
               transform="matrix(1 0 0 1 0.150049 -171.918854)"
               id="path32" />
          </g>
          <path
             d="m 77.148438 63.082031 l 2.285156 1.859375 l -0.285156 3.140625 l -13.859376 19.722657 l -3.140624 -0.722657 l -3 -2 l -4 -2 l -2 -3 l -8 -4 z m 0 0"
             id="path33" />
          <path
             d="m 19.648438 11.082031 h 1 c 2.488281 0 4.5 2.015625 4.5 4.5 s -2.011719 4.5 -4.5 4.5 h -1 c -2.484376 0 -4.5 -2.015625 -4.5 -4.5 s 2.015624 -4.5 4.5 -4.5 z m 0 0"
             id="path34" />
          <path
             d="m 60.148438 20.082031 h 40 v 4 h -40 z m 0 0"
             fill="#9a9996"
             id="path35" />
        </g>
      </g>
    </g>
  </mask>
  <mask
     id="r">
    <g
       filter="url(#a)"
       id="g38">
      <rect
         fill-opacity="0.8"
         height="184.32"
         width="184.32"
         x="-28.16"
         y="-28.16"
         id="rect37" />
    </g>
  </mask>
  <linearGradient
     id="s"
     gradientTransform="matrix(0 0.37 -0.98462 0 295.38501 -30.360001)"
     gradientUnits="userSpaceOnUse"
     x1="300"
     x2="428"
     y1="235"
     y2="235">
    <stop
       offset="0"
       stop-color="#f9f06b"
       id="stop38" />
    <stop
       offset="1"
       stop-color="#f5c211"
       id="stop39" />
  </linearGradient>
  <clipPath
     id="t">
    <rect
       height="128"
       width="128"
       id="rect39" />
  </clipPath>
  <clipPath
     id="u">
    <rect
       height="128"
       width="128"
       id="rect40" />
  </clipPath>
  <path
     d="m 20.648438 8.082031 h 87 c 4.695312 0 8.5 3.804688 8.5 8.5 v 95 c 0 4.695313 -3.804688 8.5 -8.5 8.5 h -87 c -4.691407 0 -8.5 -3.804687 -8.5 -8.5 v -95 c 0 -4.695312 3.808593 -8.5 8.5 -8.5 z m 0 0"
     id="path40" />
  <path
     d="m 21.144531 12.082031 h 86.011719 c 2.757812 0 4.992188 2.234375 4.992188 4.992188 v 94.015625 c 0 2.757812 -2.234376 4.992187 -4.992188 4.992187 h -86.011719 c -2.757812 0 -4.996093 -2.234375 -4.996093 -4.992187 v -94.015625 c 0 -2.757813 2.238281 -4.992188 4.996093 -4.992188 z m 0 0"
     fill="#f6f5f4"
     id="path41" />
  <g
     fill="#deddda"
     id="g48">
    <path
       d="m 24.148438 96.082031 h 80 v 8 h -80 z m 0 0"
       id="path42" />
    <path
       d="m 24.148438 102.082031 h 68 v 6 h -68 z m 0 0"
       id="path43" />
    <path
       d="m 24.148438 86.082031 h 20 v 6 h -20 z m 0 0"
       id="path44" />
    <path
       d="m 24.148438 76.082031 h 80 v 12 h -80 z m 0 0"
       id="path45" />
    <path
       d="m 60.148438 68.082031 h 30 v 4 h -30 z m 0 0"
       id="path46" />
    <path
       d="m 60.148438 48.082031 h 44 v 20 h -44 z m 0 0"
       id="path47" />
    <path
       d="m 60.148438 28.082031 h 44 v 16 h -44 z m 0 0"
       id="path48" />
  </g>
  <g
     mask="url(#q)"
     id="g66">
    <g
       clip-path="url(#u)"
       id="g65">
      <g
         mask="url(#r)"
         id="g64">
        <g
           clip-path="url(#t)"
           id="g63">
          <path
             d="m 128 80.640625 v 47.359375 h -128 v -47.359375 z m 0 0"
             fill="url(#s)"
             id="path62" />
          <path
             d="m 13.308594 80.640625 l 47.355468 47.359375 h 21.214844 l -47.359375 -47.359375 z m 42.421875 0 l 47.363281 47.359375 h 21.214844 l -47.363282 -47.359375 z m 42.429687 0 l 29.839844 29.839844 v -21.210938 l -8.628906 -8.628906 z m -98.160156 7.90625 v 21.214844 l 18.238281 18.238281 h 21.214844 z m 0 0"
             id="path63" />
        </g>
      </g>
    </g>
  </g>
  <g
     clip-path="url(#b)"
     id="g50">
    <g
       clip-path="url(#c)"
       id="g49">
      <path
         d="m 16.148438 64.082031 h 36 v 40 h -36 z m 0 0"
         id="path49" />
    </g>
  </g>
  <g
     clip-path="url(#d)"
     id="g52">
    <g
       clip-path="url(#e)"
       id="g51">
      <path
         d="m 31.453125 62.199219 c -0.179687 -0.097657 -0.566406 -0.394531 -0.859375 -0.664063 c -0.605469 -0.558594 -0.710938 -1.246094 -0.289062 -1.867187 c 0.242187 -0.351563 0.226562 -0.417969 -0.257813 -1.175781 c -0.28125 -0.441407 -0.515625 -0.945313 -0.515625 -1.117188 c -0.003906 -0.183594 -0.117188 -0.3125 -0.269531 -0.3125 c -0.21875 0.003906 -0.246094 -0.101562 -0.15625 -0.605469 c 0.207031 -1.140625 0.1875 -1.199219 -0.414063 -1.394531 c -0.523437 -0.164062 -0.566406 -0.230469 -0.542968 -0.769531 c 0.023437 -0.539063 -0.015626 -0.59375 -0.496094 -0.679688 c -0.855469 -0.15625 -2.050782 -0.976562 -2.164063 -1.484375 c -0.054687 -0.246094 -0.160156 -0.558594 -0.234375 -0.695312 c -0.074218 -0.136719 -0.191406 -0.5 -0.261718 -0.808594 c -0.070313 -0.308594 -0.261719 -0.703125 -0.425782 -0.878906 c -0.164062 -0.175782 -0.425781 -0.847656 -0.582031 -1.492188 c -0.265625 -1.105468 -0.308594 -1.171875 -0.722656 -1.167968 c -0.304688 0.003906 -0.558594 -0.144532 -0.804688 -0.46875 c -0.199219 -0.261719 -0.363281 -0.542969 -0.363281 -0.625 c 0 -0.078126 -0.253906 -0.183594 -0.5625 -0.230469 c -0.34375 -0.050781 -0.753906 -0.285157 -1.070312 -0.613281 c -0.527344 -0.550782 -1.15625 -1.734376 -1.160157 -2.1875 c 0 -0.140626 -0.101562 -0.371094 -0.222656 -0.511719 c -0.308594 -0.351563 -0.78125 -1.5625 -0.949219 -2.433594 c -0.078125 -0.398437 -0.269531 -1.054687 -0.429687 -1.453125 c -0.15625 -0.398438 -0.277344 -1.039062 -0.269531 -1.417969 c 0.007812 -0.597656 -0.066407 -0.757812 -0.546876 -1.171875 c -0.308593 -0.261718 -0.609374 -0.675781 -0.671874 -0.917968 c -0.066407 -0.246094 -0.292969 -0.625 -0.507813 -0.847657 c -0.824219 -0.84375 -1.203125 -2.96875 -0.679687 -3.792969 c 0.40625 -0.636718 0.234374 -1.121093 -0.433594 -1.226562 c -1.742188 -0.269531 -3.261719 -1.820312 -3.28125 -3.351562 c -0.003906 -0.34375 -0.191406 -0.558594 -0.898438 -1.03125 c -0.488281 -0.328126 -0.976562 -0.703126 -1.085937 -0.828126 c -0.308594 -0.363281 -0.460938 -1.464843 -0.304688 -2.234374 c 0.246094 -1.246094 0.007813 -1.695313 -1.257812 -2.359376 c -1.347657 -0.710937 -2.328125 -1.601562 -2.746094 -2.496093 c -0.3125 -0.667969 -0.3125 -0.679688 0.015625 -1.25 c 0.238281 -0.417969 0.917969 -0.949219 2.488281 -1.945313 c 1.1875 -0.757812 2.160157 -1.417968 2.160157 -1.476562 c 0 -0.054688 -0.457032 -0.210938 -1.019532 -0.34375 c -0.953125 -0.226563 -1.15625 -0.21875 -3.199218 0.113281 l -2.183594 0.355469 l -2.050782 -0.417969 c -1.753906 -0.355469 -2.148437 -0.496094 -2.6875 -0.945313 l -0.632812 -0.527343 l 26.101562 -0.328125 l 26.105469 -0.328125 l 0.449219 1.332031 c 0.480469 1.429688 1.511719 5.085938 1.992188 7.070312 c 0.5625 2.316407 1.789062 6.003907 3.113281 9.363282 c 0.332031 0.84375 1.121093 3.023437 1.75 4.84375 c 2.039062 5.898437 4.175781 10.621094 5.730469 12.679687 c 0.414062 0.542969 1.183593 1.539063 1.75 2 c 0.570312 0.460938 1.050781 0.941407 1.078124 1 c 0.050782 0.121094 -33.648437 14.296875 -33.976562 14.296875 c -0.121094 0 -0.367188 -0.082031 -0.546875 -0.179687 z m 0 0"
         id="path50" />
    </g>
  </g>
  <g
     clip-path="url(#f)"
     id="g53">
    <path
       d="m 33.148438 61.082031 l -1 1.203125 l 2 -0.203125 l 0.53125 0.328125 l -0.046876 0.484375 l -1.96875 0.6875 l -5.921874 -0.125 l -11.90625 -0.65625 l 0.3125 24.28125 l 50.828124 -39 l -19.828124 4 z m 0 0"
       id="path52" />
  </g>
  <g
     clip-path="url(#g)"
     id="g54">
    <path
       d="m 32.998389 233.000885 l -1 1.203125 l 2 -0.203125 l 0.53125 0.328125 l -0.046875 0.484375 l -1.96875 0.6875 l -5.921875 -0.125 l -11.90625 -0.65625 l 0.3125 24.28125 l 50.828125 -39 l -19.828125 4 z m 0 0"
       fill="none"
       stroke="#000000"
       stroke-width="0.1"
       transform="matrix(1 0 0 1 0.150049 -171.918854)"
       id="path53" />
  </g>
  <path
     d="m 33.148438 66.082031 h 40 v 11 h -40 z m 0 0"
     id="path54" />
  <path
     d="m 37.148438 49.082031 h 27 v 22 h -27 z m 0 0"
     id="path55" />
  <path
     d="m 78.054688 64.066406 c 0 -0.117187 0.042968 -3.015625 0.09375 -6.4375 l 0.09375 -6.226562 l 0.710937 -0.160156 l 0.707031 -0.164063 l 0.914063 -0.496094 l 0.917969 -0.492187 l 1.007812 -0.273438 l 1.265625 0.132813 l 1.269531 0.132812 l 1.058594 0.402344 c 0.886719 0.339844 1.144531 0.449219 1.566406 0.679687 l 0.507813 0.273438 l 0.914062 0.085938 l 0.917969 0.082031 l 0.5625 0.328125 c 0.308594 0.183594 0.644531 0.378906 0.746094 0.4375 c 0.171875 0.097656 0.199218 0.128906 0.667968 0.734375 l 0.488282 0.628906 l 0.261718 0.796875 l 0.261719 0.792969 l 0.097657 0.882812 l 0.101562 0.886719 l -0.113281 0.578125 c -0.101563 0.535156 -0.121094 0.605469 -0.234375 0.847656 l -0.125 0.265625 l -0.128906 -0.273437 c -0.066407 -0.152344 -0.132813 -0.285157 -0.144532 -0.296875 c -0.007812 -0.011719 -0.148437 -0.011719 -0.3125 -0.003906 c -0.453125 0.023437 -1.332031 -0.074219 -2.007812 -0.222657 l -0.589844 -0.128906 l -0.71875 0.160156 c -0.707031 0.160157 -0.75 0.175781 -2.1875 0.6875 l -1.464844 0.519531 l -0.871094 0.507813 c -0.480468 0.28125 -1.261718 0.734375 -1.734374 1.011719 l -0.863282 0.503906 l -1.789062 1.496094 c -0.984375 0.820312 -1.804688 1.5 -1.820313 1.511718 c -0.03125 0.019532 -0.03125 0.003907 -0.027343 -0.191406 z m 0 0"
     id="path56" />
  <path
     d="m 65.976563 48.082031 l 4.171875 3 l 2.28125 1 h 2.71875 l 3.09375 -0.679687 l -0.1875 12.664062 l -5.46875 2.320313 l -9.4375 0.042968 v -19.003906 z m 0 0"
     stroke="#000000"
     stroke-width="0.1"
     id="path57" />
  <path
     d="m 77.863281 64.941406 l 1.9375 1.515625 l 5.015625 2.835938 l 7.585938 6.128906 l 2.355469 1.5625 l 1.582031 0.328125 l 3.359375 1.828125 l 5.800781 2.648437 l 5.601563 1.46875 l 4.976562 -0.152343 l 4.410156 -3.070313 l 3.324219 -4.324219 l 0.972656 -0.671875 l -0.222656 1.207032 l 2.628906 -4.730469 l 0.816407 -0.679688 l -0.121094 1.085938 l -0.769531 2.160156 l -2.683594 4.753906 l -3.800781 5.804688 l -7.199219 6.046875 l -1.410156 0.230469 l 2.550781 -0.578125 l 0.863281 0.804687 l -6.78125 2.617188 l 1.195313 1.367187 l -4.582032 1.007813 l -1.167968 -0.433594 l -2.105469 1.410156 l -2 -0.296875 l -0.863281 0.859375 l -1.980469 0.328125 l -0.984375 -0.089844 l -1.269531 0.84375 l -2 0.101563 l -0.917969 -0.933594 l -0.949219 0.421875 l -1.945312 -0.480469 l -1.496094 0.667969 l -1.179688 -0.875 l -1.207031 0.480469 l -1.644531 -0.5 l -0.070313 -0.976563 l -1.164062 0.628907 l -1.710938 -1.3125 l -2.132812 0.5 l -0.257813 -1.058594 l -2.078125 -0.140625 l -0.667968 -1.160156 l -1.40625 0.066406 l -0.859375 -1.351563 l -1.105469 0.15625 l -0.441406 -1.09375 l -1.757813 -0.394531 l 0.046875 -0.859375 l -1.523437 -0.105469 l -0.105469 -1.074218 l -1.710938 -0.1875 l -0.183593 -1.097657 l -1.421875 -0.375 l 0.074218 -1.207031 l -1.871093 -0.566406 l 0.359375 -1.558594 l -1.207032 -0.585937 l -0.128906 -0.667969 z m 0 0"
     stroke="#000000"
     stroke-width="0.015724"
     id="path58" />
  <path
     d="m 77.148438 63.082031 l 2.285156 1.859375 l -0.285156 3.140625 l -13.859376 19.722657 l -3.140624 -0.722657 l -3 -2 l -4 -2 l -2 -3 l -8 -4 z m 0 0"
     id="path59" />
  <path
     d="m 19.648438 11.082031 h 1 c 2.488281 0 4.5 2.015625 4.5 4.5 s -2.011719 4.5 -4.5 4.5 h -1 c -2.484376 0 -4.5 -2.015625 -4.5 -4.5 s 2.015624 -4.5 4.5 -4.5 z m 0 0"
     id="path60" />
  <path
     d="m 60.148438 20.082031 h 40 v 4 h -40 z m 0 0"
     fill="#9a9996"
     id="path61" />
</svg>
