<svg width="128" height="128" viewBox="0 0 128 128" fill="none" xmlns="http://www.w3.org/2000/svg">
<mask id="mask0_1_38" style="mask-type:alpha" maskUnits="userSpaceOnUse" x="6" y="2" width="110" height="126">
<rect x="6" y="2" width="110" height="126" fill="#D9D9D9"/>
</mask>
<g mask="url(#mask0_1_38)">
<path d="M107.5 16H20.5C15.8056 16 12 19.6697 12 24.1964V115.804C12 120.33 15.8056 124 20.5 124H107.5C112.194 124 116 120.33 116 115.804V24.1964C116 19.6697 112.194 16 107.5 16Z" fill="url(#paint0_linear_1_38)"/>
<path d="M107.5 4H20.5C15.8056 4 12 7.80558 12 12.5V107.5C12 112.194 15.8056 116 20.5 116H107.5C112.194 116 116 112.194 116 107.5V12.5C116 7.80558 112.194 4 107.5 4Z" fill="black"/>
<path d="M107.007 8H20.993C18.2354 8 16 10.2354 16 12.993V107.007C16 109.765 18.2354 112 20.993 112H107.007C109.765 112 112 109.765 112 107.007V12.993C112 10.2354 109.765 8 107.007 8Z" fill="#F6F5F4"/>
<path d="M104 92H24V100H104V92Z" fill="#DEDDDA"/>
<path d="M92 98H24V104H92V98Z" fill="#DEDDDA"/>
<path d="M44 82H24V88H44V82Z" fill="#DEDDDA"/>
<path d="M104 72H24V84H104V72Z" fill="#DEDDDA"/>
<path d="M90 64H60V68H90V64Z" fill="#DEDDDA"/>
<path d="M104 44H60V64H104V44Z" fill="#DEDDDA"/>
<path d="M104 24H60V40H104V24Z" fill="#DEDDDA"/>
<mask id="mask1_1_38" style="mask-type:luminance" maskUnits="userSpaceOnUse" x="11" y="63" width="37" height="24">
<path d="M12.475 71.4808C12.536 71.4778 13.2012 71.2917 13.9535 71.067C15.2983 70.6652 18.2832 70.0262 18.286 70.1395C18.2876 70.2006 16.8854 70.7638 15.3438 71.3217C14.6917 71.5577 14.3994 71.7027 14.3307 71.8242C14.2381 71.9878 14.2437 71.9966 14.4647 72.0372C14.8786 72.1127 14.787 72.2298 14.1875 72.3912C13.5254 72.5698 13.1811 72.8253 13.4229 72.9588C13.5938 73.0531 13.5628 73.0996 13.2991 73.1434C13.1933 73.1606 13.037 73.2481 12.9516 73.3382C12.8044 73.493 12.8108 73.5151 13.0604 73.7525L13.3244 74.0039L12.9028 74.0928C12.4754 74.1825 12.3533 74.2629 12.1925 74.5583C12.1266 74.6796 12.1461 74.7631 12.268 74.879C12.4137 75.0177 12.4126 75.0648 12.2601 75.286C11.8696 75.8513 11.8349 75.9582 11.9828 76.1358C12.186 76.3797 12.6283 76.4454 13.5617 76.3704C14.0108 76.3344 14.3626 76.3384 14.3436 76.3784C14.3246 76.4189 14.1233 76.5729 13.8978 76.7221C13.5189 76.9712 13.4791 77.0172 13.3927 77.3107C13.3412 77.4862 13.3314 77.6602 13.3711 77.698C13.4108 77.7358 13.7303 77.692 14.0808 77.5992C14.4313 77.5069 14.7389 77.451 14.7642 77.4754C14.7898 77.5009 14.7745 77.5848 14.7304 77.6642C14.4806 78.1163 15.4575 78.0021 16.9378 77.4061C17.5548 77.1573 18.0954 76.9618 18.1388 76.9709C18.1818 76.9789 18.056 77.1569 17.8586 77.3647C17.6611 77.5723 17.5098 77.7807 17.5222 77.8279C17.5344 77.875 17.4493 78.0494 17.3331 78.2153C17.2137 78.3851 17.1133 78.6502 17.1029 78.8223C17.0888 79.0585 17.0389 79.1581 16.8831 79.2634C16.7726 79.3381 16.587 79.5335 16.4719 79.698C16.2867 79.9619 16.2776 80.0258 16.3942 80.2435C16.5061 80.4522 16.4987 80.5307 16.3462 80.757C16.0776 81.1555 14.395 82.769 15 83C17.5074 82.9791 17 82 18 83C17.1399 86.4972 22.9722 86.3923 25.1529 85.3487C27.1416 84.4932 24.4109 83.6629 24 85C25.0213 85.7807 24 86 28 87L32.5312 84C34.5094 81.9678 35.0274 81.5063 36.9837 79.6474C39.8629 76.9116 40 76 43.4127 73.9996C44.4556 73.5926 47.9878 73.3985 48 73.3669C48.0113 73.3345 41.4186 69.2763 34.6946 67.1016L22.469 63.1469L17.6421 67.144C14.9876 69.3426 12.7139 71.2188 12.5897 71.3136C12.4453 71.4238 12.4041 71.4842 12.475 71.4808Z" fill="white"/>
</mask>
<g mask="url(#mask1_1_38)">
<path d="M52 60H16V100H52V60Z" fill="black"/>
</g>
<mask id="mask2_1_38" style="mask-type:luminance" maskUnits="userSpaceOnUse" x="16" y="8" width="96" height="104">
<path d="M107.007 8H20.993C18.2354 8 16 10.2354 16 12.993V107.007C16 109.765 18.2354 112 20.993 112H107.007C109.765 112 112 109.765 112 107.007V12.993C112 10.2354 109.765 8 107.007 8Z" fill="white"/>
</mask>
<g mask="url(#mask2_1_38)">
<path d="M31.3037 58.1173C31.1241 58.0213 30.7374 57.7222 30.4443 57.4525C29.8399 56.8965 29.7328 56.2071 30.1548 55.5885C30.3968 55.2338 30.383 55.1706 29.8971 54.41C29.6147 53.968 29.3819 53.4653 29.3798 53.293C29.3776 53.1113 29.2649 52.9809 29.1116 52.9828C28.8935 52.9858 28.8663 52.8796 28.9563 52.3768C29.161 51.2337 29.1442 51.1774 28.5407 50.9832C28.0189 50.8154 27.9733 50.7506 27.9976 50.2126C28.022 49.6709 27.9836 49.6179 27.5028 49.5309C26.6483 49.3761 25.4509 48.5553 25.337 48.0461C25.282 47.8005 25.1764 47.4885 25.1023 47.3528C25.0282 47.217 24.9108 46.8537 24.8414 46.5454C24.7721 46.2371 24.5804 45.8406 24.4153 45.6643C24.2503 45.488 23.9888 44.8164 23.834 44.1718C23.5691 43.068 23.527 43.0003 23.1099 43.0054C22.8072 43.0094 22.553 42.8605 22.3065 42.5355C22.1082 42.2741 21.9451 41.9938 21.9441 41.9127C21.9431 41.8316 21.6901 41.7275 21.3818 41.6814C21.0356 41.6295 20.6266 41.3942 20.3118 41.0654C19.7854 40.5158 19.1563 39.3311 19.1507 38.879C19.149 38.7374 19.048 38.5076 18.9264 38.3683C18.6197 38.0171 18.1474 36.8061 17.9776 35.9355C17.8995 35.5352 17.7074 34.881 17.5507 34.4817C17.3939 34.0823 17.2712 33.4439 17.2779 33.0628C17.2884 32.4651 17.2134 32.3044 16.7324 31.8924C16.4257 31.6298 16.123 31.2157 16.0596 30.9722C15.9962 30.7287 15.7678 30.3483 15.552 30.1268C14.7275 29.2806 14.3483 27.1563 14.8745 26.3313C15.2799 25.6956 15.1084 25.2108 14.4416 25.1072C12.6971 24.8362 11.1767 23.2845 11.1579 21.7558C11.1537 21.4114 10.9669 21.1962 10.2616 20.7231C9.77156 20.3945 9.28274 20.0223 9.17529 19.896C8.86481 19.5312 8.71341 18.4302 8.8678 17.6599C9.117 16.4165 8.8764 15.9641 7.61295 15.3002C6.26561 14.5923 5.28418 13.7012 4.86505 12.8052C4.55347 12.1391 4.55362 12.1272 4.88066 11.557C5.12071 11.1384 5.80007 10.6067 7.36986 9.60876C8.55733 8.85386 9.52906 8.19038 9.52925 8.13434C9.52943 8.07824 9.07125 7.92332 8.51103 7.78992C7.55736 7.56282 7.35339 7.57002 5.31057 7.90295L3.1287 8.25858L1.07511 7.84138C-0.675817 7.48568 -1.07177 7.34631 -1.61151 6.89565L-2.24454 6.36707L23.8597 6.04012L49.9639 5.71317L50.4121 7.04512C50.8925 8.47264 51.9237 12.1312 52.4044 14.1133C52.9659 16.4288 54.1923 20.1178 55.5176 23.4778C55.8501 24.3208 56.6372 26.4997 57.2667 28.3198C59.3072 34.2193 61.4421 38.9409 63 41C63.4112 41.5434 64.1805 42.5398 64.7501 43C65.3197 43.4602 65.801 43.9435 65.8248 44C65.8757 44.1207 32.1772 58.2992 31.8514 58.296C31.7297 58.2963 31.4832 58.2152 31.3037 58.1193L31.3037 58.1173Z" fill="black"/>
</g>
<mask id="mask3_1_38" style="mask-type:luminance" maskUnits="userSpaceOnUse" x="16" y="34" width="56" height="66">
<path d="M72 34H16V100H72V34Z" fill="white"/>
</mask>
<g mask="url(#mask3_1_38)">
<path d="M33 57L32 58.2031L34 58L34.5312 58.3281L34.4844 58.8125L32.5156 59.5L26.5938 59.375L14.6875 58.7188L15 83L65.8248 44L46 48L33 57Z" fill="black" stroke="black" stroke-width="0.1"/>
</g>
<path d="M73 62H33V73H73V62Z" fill="black"/>
<path d="M64 45H37V67H64V45Z" fill="black"/>
<path d="M77.9032 59.9847C77.9053 59.8675 77.9489 56.9704 78 53.5466L78.0929 47.3217L78.8012 47.1596L79.5095 46.9975L80.4256 46.5023L81.3417 46.007L81.8451 45.8703L82.3486 45.7336L83.616 45.8668L84.8834 46L85.9435 46.4039C86.8287 46.7411 87.0871 46.8532 87.5099 47.0828L88.0162 47.3578L88.9322 47.441L89.8482 47.5242L90.4125 47.8544C90.7229 48.036 91.0579 48.2316 91.157 48.2891C91.3295 48.3895 91.3576 48.4202 91.8257 49.0238L92.3144 49.6539L92.5767 50.4493L92.8389 51.2448L92.9377 52.1277L93.0366 53.0107L92.9246 53.5924C92.8218 54.1262 92.8024 54.1959 92.6883 54.4388L92.564 54.7036L92.4373 54.4287C92.3677 54.2775 92.3028 54.1451 92.2932 54.1345C92.2836 54.1235 92.1419 54.1216 91.9784 54.1305C91.5255 54.1526 90.6467 54.0548 89.9703 53.9069L89.3824 53.7784L88.6617 53.9401C87.9562 54.0987 87.9106 54.1135 86.4763 54.6247L85.0115 55.1468L84.1386 55.6539C83.6585 55.9328 82.8775 56.3879 82.4029 56.6652L81.5401 57.1695L79.7515 58.6631C78.7677 59.4845 77.9486 60.1659 77.9311 60.1772C77.9017 60.1959 77.8997 60.1802 77.9032 59.9847Z" fill="black"/>
<path d="M65.8248 44L70 47L72.2796 48H75L78.0929 47.3217L77.9032 59.9847L72.4342 62.3049L63 62.3491V43.3456L65.8248 44Z" fill="black" stroke="black" stroke-width="0.1"/>
<path d="M77.7144 60.8622L79.6494 62.3766L84.6666 65.2124L92.2514 71.3393L94.6074 72.9042L96.1903 73.2297L99.5507 75.0605L105.348 77.7079L110.951 79.1754L115.927 79.0225V84.3868L120 75.5L124.637 70.9583L125 65.5L127.042 67.4364L127.859 66.7567L132.5 65.5L133 75.5L125.5 81L122 85.5L115.927 84.3868L113.283 86.6076L111.875 86.8375L114.425 86.2583L115.289 87.0615L108.504 89.6803L109.701 91.048L105.119 92.0547L103.953 91.6235L101.848 93.0336L99.8462 92.7357L98.9821 93.5944L97.0004 93.921L96.0189 93.8311L94.7482 94.6755L92.7497 94.7799L91.8306 93.8452L90.8802 94.2675L88.9375 93.7876L87.4387 94.4535L86.2619 93.5773L85.0538 94.058L83.4071 93.5586L83.3392 92.5814L82.1729 93.2115L80.4635 91.9005L78.3293 92.401L78.0734 91.3395L75.9932 91.2005L75.3265 90.0418L73.9199 90.1071L73.0617 88.7536L71.9546 88.9098L71.5125 87.8191L69.7578 87.4236L69.8047 86.5633L68.2816 86.4566L68.1737 85.3853L66.4625 85.1943L66.2797 84.1003L64.8592 83.7242L64.9323 82.5165L63.061 81.9489L63.4196 80.3906L62.215 79.8065L62.0827 79.1378L77.7144 60.8622Z" fill="black"/>
<path d="M115.927 84.3868V79.0225L110.951 79.1754L105.348 77.7079L99.5507 75.0605L96.1903 73.2297L94.6074 72.9042L92.2514 71.3393L84.6666 65.2124L79.6494 62.3766L77.7144 60.8622L62.0827 79.1378L62.215 79.8065L63.4196 80.3906L63.061 81.9489L64.9323 82.5165L64.8592 83.7242L66.2797 84.1003L66.4625 85.1943L68.1737 85.3853L68.2816 86.4566L69.8047 86.5633L69.7578 87.4236L71.5125 87.8191L71.9546 88.9098L73.0617 88.7536L73.9199 90.1071L75.3265 90.0418L75.9932 91.2005L78.0734 91.3395L78.3293 92.401L80.4635 91.9005L82.1729 93.2115L83.3392 92.5814L83.4071 93.5586L85.0538 94.058L86.2619 93.5773L87.4387 94.4535L88.9375 93.7876L90.8802 94.2675L91.8306 93.8452L92.7497 94.7799L94.7482 94.6755L96.0189 93.8311L97.0004 93.921L98.9821 93.5944L99.8462 92.7357L101.848 93.0336L103.953 91.6235L105.119 92.0547L109.701 91.048L108.504 89.6803L115.289 87.0615L114.425 86.2583L111.875 86.8375L113.283 86.6076L115.927 84.3868ZM115.927 84.3868L120 75.5L124.637 70.9583L125 65.5L127.042 67.4364L127.859 66.7567L132.5 65.5L133 75.5L125.5 81L122 85.5L115.927 84.3868Z" stroke="black" stroke-width="0.0157245"/>
<path d="M77 59L79.2827 60.8622L79 64L65.1378 83.7242L62 83L59 81L55 79L53 76L45 72L77 59Z" fill="black"/>
<path d="M20.5 7H19.5C17.0147 7 15 9.01472 15 11.5C15 13.9853 17.0147 16 19.5 16H20.5C22.9853 16 25 13.9853 25 11.5C25 9.01472 22.9853 7 20.5 7Z" fill="black"/>
<path d="M100 16H60V20H100V16Z" fill="#9A9996"/>
</g>
<defs>
<linearGradient id="paint0_linear_1_38" x1="6.5" y1="118.214" x2="123" y2="118.214" gradientUnits="userSpaceOnUse">
<stop stop-color="#77767B"/>
<stop offset="0.0829456" stop-color="#C0BFBC"/>
<stop offset="0.189927" stop-color="#77767B"/>
<stop offset="0.797198" stop-color="#77767B"/>
<stop offset="0.909512" stop-color="#C0BFBC"/>
<stop offset="1" stop-color="#77767B"/>
</linearGradient>
</defs>
</svg>
